<?xml version="1.0" standalone="no"?>
<!DOCTYPE svg PUBLIC "-//W3C//DTD SVG 20010904//EN"
 "http://www.w3.org/TR/2001/REC-SVG-20010904/DTD/svg10.dtd">
<svg version="1.0" xmlns="http://www.w3.org/2000/svg"
 width="172.000000pt" height="172.000000pt" viewBox="0 0 172.000000 172.000000"
 preserveAspectRatio="xMidYMid meet">
<metadata>
Created by potrace 1.16, written by Peter Selinger 2001-2019
</metadata>
<g transform="translate(0.000000,172.000000) scale(0.100000,-0.100000)"
fill="#6366F1" stroke="none">
<path d="M665 1464 c-117 -26 -210 -77 -296 -163 -77 -76 -114 -135 -151 -241
-29 -79 -37 -300 -14 -390 60 -238 245 -414 479 -457 288 -51 573 116 668 394
21 61 24 86 24 233 0 147 -3 172 -24 233 -62 181 -214 326 -399 380 -81 24
-205 29 -287 11z m43 -346 l3 -38 74 0 74 0 3 38 c3 36 4 37 43 37 39 0 40 -1
43 -37 3 -37 4 -38 43 -38 52 0 79 -27 79 -80 l0 -40 -282 2 c-265 3 -283 4
-286 21 -11 55 23 97 79 97 38 0 39 1 39 33 0 43 6 49 50 45 33 -3 35 -5 38
-40z m360 -377 c2 -143 0 -178 -13 -197 l-15 -24 -248 0 c-198 0 -252 3 -268
14 -17 13 -19 30 -22 186 -2 95 -1 178 2 186 5 12 52 14 283 12 l278 -3 3
-174z"/>
<path d="M821 775 l-71 -69 -28 27 c-34 33 -43 33 -70 4 l-22 -23 60 -59 60
-60 97 98 98 97 -27 27 -27 26 -70 -68z"/>
</g>
</svg>
