<?xml version="1.0" standalone="no"?>
<!DOCTYPE svg PUBLIC "-//W3C//DTD SVG 20010904//EN"
 "http://www.w3.org/TR/2001/REC-SVG-20010904/DTD/svg10.dtd">
<svg version="1.0" xmlns="http://www.w3.org/2000/svg"
 width="180.000000pt" height="170.000000pt" viewBox="0 0 180.000000 170.000000"
 preserveAspectRatio="xMidYMid meet">
<metadata>
Created by potrace 1.16, written by Peter Selinger 2001-2019
</metadata>
<g transform="translate(0.000000,170.000000) scale(0.100000,-0.100000)"
fill="#6366F1" stroke="none">
<path d="M748 1470 c-206 -37 -380 -164 -467 -341 -126 -256 -81 -540 119
-739 123 -123 266 -183 440 -184 116 -1 179 14 290 66 163 78 292 239 334 418
20 84 20 226 0 304 -55 219 -239 406 -452 460 -77 20 -201 28 -264 16z m-140
-592 l2 -198 278 -2 277 -3 0 -35 0 -35 -310 -3 c-283 -2 -311 -1 -322 15 -14
18 -19 443 -6 457 4 4 23 6 43 4 l35 -3 3 -197z m517 68 c0 -73 -3 -91 -17
-100 -14 -8 -23 -5 -46 17 l-28 27 -64 -65 c-37 -37 -73 -65 -84 -65 -11 0
-43 23 -71 50 l-51 50 -29 -30 c-35 -37 -45 -37 -75 -5 l-24 25 54 55 c30 30
63 55 74 55 11 0 43 -23 71 -50 l51 -50 44 45 44 45 -22 23 c-22 23 -28 48
-15 61 4 4 48 5 98 4 l90 -3 0 -89z"/>
</g>
</svg>
