<?xml version="1.0" standalone="no"?>
<!DOCTYPE svg PUBLIC "-//W3C//DTD SVG 20010904//EN"
 "http://www.w3.org/TR/2001/REC-SVG-20010904/DTD/svg10.dtd">
<svg version="1.0" xmlns="http://www.w3.org/2000/svg"
 width="162.000000pt" height="164.000000pt" viewBox="0 0 162.000000 164.000000"
 preserveAspectRatio="xMidYMid meet">
<metadata>
Created by potrace 1.16, written by Peter Selinger 2001-2019
</metadata>
<g transform="translate(0.000000,164.000000) scale(0.100000,-0.100000)"
fill="#6366F1" stroke="none">
<path d="M605 1404 c-117 -26 -210 -77 -296 -163 -77 -76 -114 -135 -151 -241
-29 -79 -37 -300 -14 -390 60 -238 245 -414 479 -457 288 -51 573 116 668 394
21 61 24 86 24 233 0 147 -3 172 -24 233 -62 181 -214 326 -399 380 -81 24
-205 29 -287 11z m195 -319 c16 -8 42 -32 57 -52 23 -30 28 -46 28 -93 0 -100
-71 -166 -170 -158 -91 8 -148 69 -149 160 0 57 36 117 85 141 42 21 111 22
149 2z m-210 -396 c0 -43 -4 -54 -25 -71 -34 -27 -33 -70 1 -97 33 -26 58 -27
84 -1 28 28 26 75 -5 102 -20 18 -25 31 -25 71 0 46 1 49 23 43 54 -15 96 -17
130 -8 36 10 37 10 37 -19 0 -21 -7 -32 -28 -43 -35 -18 -52 -54 -52 -111 0
-32 4 -45 14 -45 8 0 21 -3 30 -6 12 -4 16 0 16 15 0 13 -6 21 -16 21 -14 0
-15 7 -11 37 15 91 127 82 127 -9 0 -18 -5 -28 -15 -28 -9 0 -15 -9 -15 -21 0
-15 4 -19 16 -15 9 3 22 6 30 6 10 0 14 14 14 51 0 61 -11 84 -50 104 -23 12
-30 22 -30 45 0 24 4 30 20 30 47 0 119 -59 139 -113 17 -44 14 -127 -6 -149
-15 -17 -37 -18 -269 -18 -250 0 -253 0 -268 22 -46 65 7 208 89 244 44 19 45
19 45 -37z"/>
</g>
</svg>
