<?xml version="1.0" standalone="no"?>
<!DOCTYPE svg PUBLIC "-//W3C//DTD SVG 20010904//EN"
 "http://www.w3.org/TR/2001/REC-SVG-20010904/DTD/svg10.dtd">
<svg version="1.0" xmlns="http://www.w3.org/2000/svg"
 width="150.000000pt" height="154.000000pt" viewBox="0 0 150.000000 154.000000"
 preserveAspectRatio="xMidYMid meet">

<g transform="translate(0.000000,154.000000) scale(0.100000,-0.100000)"
fill="#6366F1" stroke="none">
<path d="M603 1390 c-153 -28 -308 -136 -385 -270 -62 -106 -72 -159 -72 -360
0 -168 2 -191 23 -250 32 -92 81 -167 148 -231 114 -109 223 -152 383 -152
119 0 194 20 291 78 64 40 154 131 191 195 62 106 72 159 72 360 0 168 -2 191
-23 250 -45 129 -143 250 -251 312 -103 60 -261 88 -377 68z m137 -398 c0 -55
4 -92 12 -100 8 -8 45 -12 100 -12 l88 0 -2 -217 -3 -218 -235 0 -235 0 -3
305 c-1 168 0 310 3 317 3 10 40 13 140 13 l135 0 0 -88z m132 21 c38 -37 68
-73 68 -80 0 -10 -22 -13 -80 -13 l-80 0 0 80 c0 56 4 80 12 80 7 0 43 -30 80
-67z"/>
<path d="M660 760 l0 -40 -40 0 -40 0 0 -40 0 -40 40 0 40 0 0 -40 0 -40 40 0
40 0 0 40 0 40 40 0 40 0 0 40 0 40 -40 0 -40 0 0 40 0 40 -40 0 -40 0 0 -40z"/>
</g>
</svg>
