<?xml version="1.0" standalone="no"?>
<!DOCTYPE svg PUBLIC "-//W3C//DTD SVG 20010904//EN"
 "http://www.w3.org/TR/2001/REC-SVG-20010904/DTD/svg10.dtd">
<svg version="1.0" xmlns="http://www.w3.org/2000/svg"
 width="646.000000pt" height="600.000000pt" viewBox="0 0 646.000000 600.000000"
 preserveAspectRatio="xMidYMid meet">

<g transform="translate(0.000000,600.000000) scale(0.100000,-0.100000)"
fill="#6366F1" stroke="none">
<path d="M2110 5293 c-27 -10 -65 -37 -96 -68 -92 -91 -84 91 -84 -2012 l0
-1853 -145 0 -145 0 0 1288 c0 1446 6 1340 -76 1431 -26 29 -65 58 -96 72 -50
23 -64 24 -253 24 -189 0 -203 -1 -252 -24 -65 -29 -124 -91 -149 -157 -18
-47 -19 -97 -19 -1529 l0 -1480 21 -46 c27 -58 85 -116 143 -143 42 -19 63
-21 256 -21 210 0 210 0 267 28 61 30 96 65 131 131 20 37 22 59 25 214 l4
172 143 0 143 0 4 -172 c3 -164 4 -175 30 -223 33 -63 69 -98 133 -127 l50
-23 1455 -3 c1033 -2 1470 0 1506 8 98 21 189 102 214 189 7 24 10 494 10
1371 l0 1335 -26 52 c-42 87 -150 163 -230 163 l-23 0 -3 398 c-3 390 -3 398
-26 447 -34 73 -474 514 -546 547 l-51 23 -1135 2 c-1014 1 -1140 0 -1180 -14z
m1812 -787 l3 -244 25 -28 c46 -50 71 -54 315 -54 l225 0 0 -285 0 -285 -1000
0 -1000 0 0 563 c0 310 3 567 7 570 3 4 325 7 714 7 l708 0 3 -244z m-661
-1479 c24 -12 54 -37 66 -56 22 -32 23 -44 23 -208 0 -203 -7 -229 -75 -268
-40 -24 -49 -25 -211 -25 -190 0 -221 8 -261 69 -22 32 -23 43 -23 213 0 197
8 231 57 264 43 28 72 32 229 33 137 0 155 -2 195 -22z m1151 -5 c22 -14 45
-41 58 -67 20 -42 21 -57 18 -214 -3 -185 -7 -197 -72 -245 -25 -19 -44 -21
-207 -24 -170 -3 -181 -2 -219 19 -68 38 -80 78 -80 256 0 178 4 201 39 243
43 51 85 60 266 57 147 -2 163 -4 197 -25z m-1141 -1135 c18 -12 44 -38 56
-56 22 -32 23 -44 23 -208 0 -182 -5 -207 -47 -246 -18 -16 -42 -17 -249 -15
l-228 3 -23 34 c-22 32 -23 43 -23 221 0 178 1 189 23 221 41 61 70 69 263 69
161 0 173 -1 205 -23z m1126 7 c19 -9 46 -33 61 -52 26 -34 27 -39 30 -196 4
-169 -3 -214 -39 -260 l-20 -26 -229 0 -228 0 -26 30 c-33 39 -39 86 -34 268
3 167 9 182 78 230 31 21 43 22 202 22 137 0 177 -3 205 -16z"/>
</g>
</svg>
