<?xml version="1.0" standalone="no"?>
<!DOCTYPE svg PUBLIC "-//W3C//DTD SVG 20010904//EN"
 "http://www.w3.org/TR/2001/REC-SVG-20010904/DTD/svg10.dtd">
<svg version="1.0" xmlns="http://www.w3.org/2000/svg"
 width="162.000000pt" height="162.000000pt" viewBox="0 0 162.000000 162.000000"
 preserveAspectRatio="xMidYMid meet">

<g transform="translate(0.000000,162.000000) scale(0.100000,-0.100000)"
fill="#6366F1" stroke="none">
<path d="M665 1410 c-176 -32 -339 -145 -423 -293 -58 -102 -77 -186 -76 -342
0 -125 3 -148 27 -218 90 -258 304 -412 572 -411 81 1 115 6 178 27 195 67
328 203 389 397 20 64 23 95 22 215 0 125 -3 148 -27 218 -84 243 -283 396
-535 411 -42 3 -99 1 -127 -4z m18 -327 c18 -9 56 -32 85 -51 41 -28 55 -33
65 -23 9 9 7 16 -13 31 -14 10 -23 20 -20 23 74 61 159 44 218 -43 32 -48 28
-127 -11 -185 -22 -33 -31 -67 -48 -180 -22 -151 -34 -188 -62 -193 -27 -5
-44 14 -57 66 -39 160 -58 189 -103 159 -17 -11 -28 -38 -46 -110 -23 -98 -37
-121 -68 -115 -28 5 -42 48 -63 188 -15 106 -24 141 -49 185 -50 88 -41 165
26 226 46 43 92 50 146 22z"/>
</g>
</svg>
