<?xml version="1.0" standalone="no"?>
<!DOCTYPE svg PUBLIC "-//W3C//DTD SVG 20010904//EN"
 "http://www.w3.org/TR/2001/REC-SVG-20010904/DTD/svg10.dtd">
<svg version="1.0" xmlns="http://www.w3.org/2000/svg"
 width="170.000000pt" height="176.000000pt" viewBox="0 0 170.000000 176.000000"
 preserveAspectRatio="xMidYMid meet">

<g transform="translate(0.000000,176.000000) scale(0.100000,-0.100000)"
fill="#6366F1" stroke="none">
<path d="M675 1513 c-54 -7 -138 -34 -195 -63 -130 -66 -243 -196 -291 -337
-21 -61 -24 -86 -24 -233 0 -147 3 -172 24 -233 96 -279 388 -450 672 -392
224 45 388 191 465 415 16 45 19 83 19 215 -1 147 -3 165 -27 227 -38 101 -85
173 -160 243 -127 120 -312 181 -483 158z m155 -334 c90 -34 93 -39 88 -150
-3 -84 -7 -102 -30 -136 -65 -98 -199 -98 -272 0 -18 24 -22 46 -24 136 -4
121 -6 117 78 149 70 27 92 27 160 1z m-140 -434 c30 -30 59 -55 65 -55 5 0
33 25 61 56 49 55 52 57 89 50 83 -16 154 -130 121 -195 -9 -16 -23 -31 -31
-35 -9 -3 -122 -6 -250 -6 l-234 0 -20 26 c-27 34 -26 66 0 121 22 45 86 93
124 93 12 0 44 -24 75 -55z"/>
<path d="M740 1130 c0 -11 -7 -20 -15 -20 -8 0 -15 -4 -15 -9 0 -5 7 -11 15
-15 8 -3 15 -12 15 -21 0 -8 7 -15 15 -15 8 0 15 9 15 20 0 11 7 20 15 20 8 0
15 5 15 10 0 6 -7 10 -15 10 -8 0 -15 9 -15 20 0 11 -7 20 -15 20 -8 0 -15 -9
-15 -20z"/>
<path d="M660 971 c0 -36 32 -77 66 -85 59 -15 124 34 124 94 0 19 -6 20 -95
20 l-95 0 0 -29z"/>
</g>
</svg>
