<?xml version="1.0" standalone="no"?>
<!DOCTYPE svg PUBLIC "-//W3C//DTD SVG 20010904//EN"
 "http://www.w3.org/TR/2001/REC-SVG-20010904/DTD/svg10.dtd">
<svg version="1.0" xmlns="http://www.w3.org/2000/svg"
 width="172.000000pt" height="194.000000pt" viewBox="0 0 172.000000 194.000000"
 preserveAspectRatio="xMidYMid meet">

<g transform="translate(0.000000,194.000000) scale(0.100000,-0.100000)"
fill="#6366F1" stroke="none">
<path d="M665 1564 c-117 -26 -210 -77 -296 -163 -77 -76 -114 -135 -151 -241
-29 -79 -37 -300 -14 -390 60 -238 245 -414 479 -457 288 -51 573 116 668 394
21 61 24 86 24 233 0 147 -3 172 -24 233 -62 181 -214 326 -399 380 -81 24
-205 29 -287 11z m100 -354 c56 -35 82 -47 90 -39 7 7 3 16 -13 29 l-23 19 33
21 c70 43 154 13 196 -70 30 -61 28 -96 -12 -171 -28 -53 -37 -87 -51 -182
-21 -159 -33 -191 -67 -195 -33 -4 -39 6 -68 126 -24 100 -43 123 -84 104 -16
-7 -27 -31 -45 -103 -30 -117 -36 -129 -66 -129 -33 0 -40 18 -59 140 -26 166
-34 197 -63 242 -51 81 -29 186 50 237 53 34 93 27 182 -29z"/>
</g>
</svg>
