<?xml version="1.0" standalone="no"?>
<!DOCTYPE svg PUBLIC "-//W3C//DTD SVG 20010904//EN"
 "http://www.w3.org/TR/2001/REC-SVG-20010904/DTD/svg10.dtd">
<svg version="1.0" xmlns="http://www.w3.org/2000/svg"
 width="160.000000pt" height="170.000000pt" viewBox="0 0 160.000000 170.000000"
 preserveAspectRatio="xMidYMid meet">
<metadata>
Created by potrace 1.16, written by Peter Selinger 2001-2019
</metadata>
<g transform="translate(0.000000,170.000000) scale(0.100000,-0.100000)"
fill="#6366F1" stroke="none">
<path d="M604 1370 c-220 -32 -420 -194 -499 -403 -123 -329 43 -699 369 -822
94 -35 210 -49 365 -42 154 6 210 20 324 79 257 134 389 443 310 728 -24 88
-90 205 -152 269 -98 101 -210 161 -351 187 -80 14 -281 17 -366 4z m137 -333
c106 -71 106 -203 0 -274 -98 -66 -241 15 -241 137 0 122 143 203 241 137z
m337 -189 l3 -47 47 -3 c46 -3 47 -3 50 -40 l3 -38 -50 0 -51 0 0 -50 0 -50
-40 0 -40 0 0 50 0 50 -50 0 -50 0 0 40 0 40 50 0 50 0 0 51 0 50 38 -3 c37
-3 37 -4 40 -50z m-418 -161 c19 0 60 4 91 8 68 9 117 -10 157 -63 21 -28 27
-48 30 -104 7 -112 17 -108 -278 -108 -295 0 -285 -4 -278 108 6 119 72 178
183 166 33 -3 76 -7 95 -7z"/>
</g>
</svg>
