<?xml version="1.0" standalone="no"?>
<!DOCTYPE svg PUBLIC "-//W3C//DTD SVG 20010904//EN"
 "http://www.w3.org/TR/2001/REC-SVG-20010904/DTD/svg10.dtd">
<svg version="1.0" xmlns="http://www.w3.org/2000/svg"
 width="160.000000pt" height="162.000000pt" viewBox="0 0 160.000000 162.000000"
 preserveAspectRatio="xMidYMid meet">

<g transform="translate(0.000000,162.000000) scale(0.100000,-0.100000)"
fill="#6366F1" stroke="none">
<path d="M705 1434 c-11 -2 -45 -9 -75 -15 -30 -6 -93 -29 -140 -51 -69 -33
-100 -56 -165 -122 -129 -130 -185 -264 -185 -444 0 -182 57 -320 184 -447
135 -135 267 -189 456 -188 86 0 120 5 186 27 452 147 592 715 259 1052 -114
116 -252 178 -417 188 -45 3 -92 3 -103 0z m-5 -375 c19 -12 44 -30 56 -40 20
-19 21 -19 45 7 82 88 220 68 276 -40 21 -40 20 -114 -1 -153 l-17 -33 -79 0
-80 0 -20 40 c-11 22 -24 40 -28 40 -5 0 -21 -27 -37 -61 -16 -33 -33 -63 -37
-65 -5 -3 -26 34 -48 81 -24 52 -44 84 -50 80 -6 -4 -22 -31 -35 -61 l-24 -54
-65 0 c-57 0 -67 3 -81 23 -90 139 83 321 225 236z m74 -376 c6 2 25 29 41 59
39 73 42 75 56 45 11 -24 18 -26 78 -29 l66 -3 -114 -117 c-63 -65 -120 -118
-126 -118 -5 0 -64 54 -130 120 l-120 120 63 0 c34 0 62 4 62 9 0 5 7 26 16
47 l17 39 40 -88 c22 -48 45 -86 51 -84z"/>
</g>
</svg>
