<?xml version="1.0" standalone="no"?>
<!DOCTYPE svg PUBLIC "-//W3C//DTD SVG 20010904//EN"
 "http://www.w3.org/TR/2001/REC-SVG-20010904/DTD/svg10.dtd">
<svg version="1.0" xmlns="http://www.w3.org/2000/svg"
 width="160.000000pt" height="138.000000pt" viewBox="0 0 160.000000 138.000000"
 preserveAspectRatio="xMidYMid meet">
<metadata>
Created by potrace 1.16, written by Peter Selinger 2001-2019
</metadata>
<g transform="translate(0.000000,138.000000) scale(0.100000,-0.100000)"
fill="#6366F1" stroke="none">
<path d="M630 1321 c0 -5 -26 -17 -57 -26 -147 -43 -289 -146 -367 -268 -39
-61 -86 -174 -86 -207 0 -10 -7 -26 -17 -35 -14 -14 -14 -18 -2 -26 10 -6 11
-13 4 -26 -12 -21 -12 -79 0 -107 5 -12 3 -21 -6 -27 -10 -6 -11 -11 -3 -16 6
-5 19 -35 29 -68 42 -149 146 -291 268 -369 61 -39 174 -86 207 -86 10 0 24
-8 29 -18 9 -15 12 -15 21 -2 7 11 14 12 27 5 21 -12 259 -12 287 0 12 5 21 3
27 -6 7 -11 11 -11 17 -2 5 7 33 20 63 29 145 43 286 147 363 267 39 61 86
174 86 207 0 10 8 23 18 29 14 8 15 13 4 31 -7 11 -9 26 -5 33 10 17 11 79 0
94 -5 7 -3 20 5 33 10 16 10 22 1 28 -7 5 -20 33 -29 63 -43 145 -147 286
-267 363 -61 39 -174 86 -207 86 -10 0 -24 8 -29 18 -9 14 -12 15 -20 3 -6 -9
-15 -11 -27 -6 -28 12 -266 12 -288 0 -13 -7 -20 -7 -23 3 -5 14 -23 16 -23 3z
m151 -344 c106 -71 106 -203 0 -274 -98 -66 -241 15 -241 137 0 122 143 203
241 137z m307 -252 c5 -29 43 -56 59 -43 19 16 41 2 60 -38 17 -34 17 -36 0
-45 -23 -13 -22 -65 1 -78 16 -9 16 -12 -3 -48 -17 -32 -25 -38 -49 -36 -38 3
-64 -12 -68 -39 -3 -20 -10 -23 -50 -26 -45 -3 -48 -2 -48 22 0 30 -30 49 -63
40 -42 -10 -91 75 -52 90 9 3 15 18 15 36 0 18 -6 33 -15 36 -21 8 -19 37 6
68 15 19 26 25 44 20 30 -7 65 11 65 35 0 27 10 32 55 29 31 -2 41 -8 43 -23z
m-388 -98 c19 0 56 3 82 8 43 7 46 6 42 -12 -3 -11 3 -30 14 -43 18 -23 18
-24 0 -42 -25 -25 -18 -60 22 -108 21 -27 35 -34 56 -33 28 2 48 -13 38 -29
-3 -4 -117 -8 -253 -8 -296 0 -286 -4 -279 108 6 119 72 178 183 166 33 -3 76
-7 95 -7z"/>
</g>
</svg>
