<?xml version="1.0" standalone="no"?>
<!DOCTYPE svg PUBLIC "-//W3C//DTD SVG 20010904//EN"
 "http://www.w3.org/TR/2001/REC-SVG-20010904/DTD/svg10.dtd">
<svg version="1.0" xmlns="http://www.w3.org/2000/svg"
 width="166.000000pt" height="154.000000pt" viewBox="0 0 166.000000 154.000000"
 preserveAspectRatio="xMidYMid meet">

<g transform="translate(0.000000,154.000000) scale(0.100000,-0.100000)"
fill="#6366F1" stroke="none">
<path d="M668 1430 c-206 -37 -380 -164 -467 -341 -126 -256 -81 -540 119
-739 123 -123 266 -183 440 -184 116 -1 179 14 290 66 163 78 292 239 334 418
20 84 20 226 0 304 -55 219 -239 406 -452 460 -77 20 -201 28 -264 16z m222
-348 c113 -59 174 -157 174 -282 0 -99 -28 -163 -100 -229 -70 -64 -131 -85
-228 -79 -111 7 -212 71 -255 161 -87 181 -9 374 178 444 56 21 176 13 231
-15z"/>
<path d="M630 885 c-26 -31 13 -82 44 -56 19 16 21 42 4 59 -16 16 -33 15 -48
-3z"/>
<path d="M830 885 c-26 -31 13 -82 44 -56 19 16 21 42 4 59 -16 16 -33 15 -48
-3z"/>
<path d="M614 708 c-11 -17 49 -65 97 -78 24 -7 56 -9 73 -6 41 9 116 54 116
71 0 26 -18 25 -55 -5 -29 -23 -48 -30 -82 -30 -46 0 -90 17 -112 44 -16 19
-27 20 -37 4z"/>
</g>
</svg>
