<?xml version="1.0" standalone="no"?>
<!DOCTYPE svg PUBLIC "-//W3C//DTD SVG 20010904//EN"
 "http://www.w3.org/TR/2001/REC-SVG-20010904/DTD/svg10.dtd">
<svg version="1.0" xmlns="http://www.w3.org/2000/svg"
 width="192.000000pt" height="176.000000pt" viewBox="0 0 192.000000 176.000000"
 preserveAspectRatio="xMidYMid meet">
<metadata>
Created by potrace 1.16, written by Peter Selinger 2001-2019
</metadata>
<g transform="translate(0.000000,176.000000) scale(0.100000,-0.100000)"
fill="#6366F1" stroke="none">
<path d="M744 1430 c-220 -32 -420 -194 -499 -403 -123 -329 43 -699 369 -822
94 -35 210 -49 365 -42 154 6 210 20 324 79 257 134 389 443 310 728 -24 88
-90 205 -152 269 -98 101 -210 161 -351 187 -80 14 -281 17 -366 4z m324 -322
c16 -16 16 -200 0 -216 -7 -7 -36 -12 -65 -12 -50 0 -53 -2 -53 -25 l0 -25
183 -2 182 -3 3 -27 3 -28 -75 0 c-74 0 -76 -1 -76 -25 0 -23 4 -25 43 -25 24
0 48 -5 55 -12 8 -8 12 -47 12 -108 0 -61 -4 -100 -12 -108 -17 -17 -239 -17
-256 0 -16 16 -16 200 0 216 7 7 31 12 55 12 39 0 43 2 43 25 l0 25 -190 0
-190 0 0 -25 c0 -23 4 -25 43 -25 24 0 48 -5 55 -12 8 -8 12 -47 12 -108 0
-61 -4 -100 -12 -108 -17 -17 -239 -17 -256 0 -16 16 -16 200 0 216 7 7 31 12
55 12 39 0 43 2 43 25 0 24 -2 25 -75 25 l-75 0 0 30 0 30 185 0 185 0 0 25
c0 24 -3 25 -53 25 -29 0 -58 5 -65 12 -16 16 -16 200 0 216 17 17 279 17 296
0z"/>
</g>
</svg>
