<?xml version="1.0" standalone="no"?>
<!DOCTYPE svg PUBLIC "-//W3C//DTD SVG 20010904//EN"
 "http://www.w3.org/TR/2001/REC-SVG-20010904/DTD/svg10.dtd">
<svg version="1.0" xmlns="http://www.w3.org/2000/svg"
 width="180.000000pt" height="164.000000pt" viewBox="0 0 180.000000 164.000000"
 preserveAspectRatio="xMidYMid meet">

<g transform="translate(0.000000,164.000000) scale(0.100000,-0.100000)"
fill="#6366F1" stroke="none">
<path d="M685 1474 c-11 -2 -45 -9 -75 -15 -30 -6 -93 -29 -140 -51 -160 -77
-290 -237 -335 -413 -19 -76 -19 -234 0 -310 55 -218 235 -400 455 -461 52
-15 101 -19 250 -18 174 0 190 2 266 27 164 55 300 172 375 322 176 357 -4
776 -386 895 -57 18 -100 23 -230 25 -88 2 -169 2 -180 -1z m551 -339 c14 -58
30 -55 -403 -53 l-398 3 -3 23 c-8 54 -23 52 402 52 l396 0 6 -25z m-76 -315
l0 -220 35 0 c29 0 36 -4 41 -25 14 -58 30 -55 -403 -53 l-398 3 0 35 c0 33 2
35 38 38 l37 3 0 220 0 219 325 0 325 0 0 -220z"/>
<path d="M820 980 c0 -18 -7 -20 -70 -20 -63 0 -70 -2 -70 -20 0 -18 7 -20 70
-20 63 0 70 -2 70 -20 0 -19 -7 -20 -90 -20 -83 0 -90 -1 -90 -20 0 -19 7 -20
90 -20 83 0 90 -1 90 -20 0 -18 -7 -20 -70 -20 -63 0 -70 -2 -70 -20 0 -18 7
-20 70 -20 63 0 70 -2 70 -20 0 -17 -7 -20 -48 -20 -60 0 -92 -21 -92 -60 0
-68 93 -76 106 -10 6 28 10 30 50 30 40 0 44 -2 44 -24 0 -25 32 -56 57 -56
20 0 53 38 53 60 0 37 -35 60 -90 60 -43 0 -50 3 -50 20 0 18 7 20 70 20 63 0
70 2 70 20 0 18 -7 20 -70 20 -63 0 -70 2 -70 20 0 19 7 20 90 20 83 0 90 1
90 20 0 19 -7 20 -90 20 -83 0 -90 1 -90 20 0 18 7 20 70 20 63 0 70 2 70 20
0 18 -7 20 -70 20 -63 0 -70 2 -70 20 0 11 -7 20 -15 20 -8 0 -15 -9 -15 -20z
m-66 -315 c3 -9 -1 -18 -10 -22 -19 -7 -39 11 -30 26 10 16 33 13 40 -4z m200
0 c3 -9 -1 -18 -10 -22 -19 -7 -39 11 -30 26 10 16 33 13 40 -4z"/>
</g>
</svg>
