<?xml version="1.0" standalone="no"?>
<!DOCTYPE svg PUBLIC "-//W3C//DTD SVG 20010904//EN"
 "http://www.w3.org/TR/2001/REC-SVG-20010904/DTD/svg10.dtd">
<svg version="1.0" xmlns="http://www.w3.org/2000/svg"
 width="168.000000pt" height="160.000000pt" viewBox="0 0 168.000000 160.000000"
 preserveAspectRatio="xMidYMid meet">

<g transform="translate(0.000000,160.000000) scale(0.100000,-0.100000)"
fill="#6366F1" stroke="none">
<path d="M720 1445 c-205 -46 -374 -206 -425 -400 -21 -82 -21 -368 0 -450 48
-184 197 -333 391 -391 79 -24 219 -24 299 0 194 57 350 222 390 413 20 93 20
331 0 408 -51 199 -196 354 -384 409 -80 23 -195 28 -271 11z m162 -402 l3
-98 98 -3 97 -3 0 -208 c0 -165 -3 -211 -14 -220 -9 -8 -82 -11 -242 -9 l-229
3 -3 305 c-1 168 0 310 3 317 3 10 41 13 144 13 l140 0 3 -97z m126 23 c40
-41 72 -77 72 -80 0 -3 -38 -6 -85 -6 l-85 0 0 80 c0 60 3 80 13 80 8 0 46
-33 85 -74z"/>
<path d="M720 840 c0 -20 5 -21 113 -18 92 2 112 6 112 18 0 12 -20 16 -112
18 -108 3 -113 2 -113 -18z"/>
<path d="M720 760 c0 -20 5 -21 113 -18 92 2 112 6 112 18 0 12 -20 16 -112
18 -108 3 -113 2 -113 -18z"/>
<path d="M720 680 c0 -20 5 -21 113 -18 92 2 112 6 112 18 0 12 -20 16 -112
18 -108 3 -113 2 -113 -18z"/>
</g>
</svg>
